<svg xmlns="http://www.w3.org/2000/svg" viewBox="0 0 66 73" fill="currentColor" class="w-6 h-6">

		<g id="Capa_2" data-name="Capa 2">
			<g id="Capa_1-2" data-name="Capa 1">
				<circle class="cls-1" cx="33" cy="40" r="30"/>
				<path class="cls-2" d="M44.81,10.37a32.61,32.61,0,0,0-5.94-1.89c0,.1,0,.17,0,.21.3.39.92.71.57,1.29a1.76,1.76,0,0,1-1.72.72,5.26,5.26,0,0,1-3.14-1.36c-.73-.57-1.16-.58-1.79.25-1.43,1.9-3.23,3.38-6.07,3-2.57-.38-3-1.25-1.64-3.34a20.33,20.33,0,0,0-3.12,1c-.54-1.25-.27-1.84,1.13-2.34a19.64,19.64,0,0,1,5.45-.8c.88-.06,1.77,0,2.66,0,1.59,0,1.6,0,1.22-1.37a4.12,4.12,0,0,0-4.11-3.1A9.55,9.55,0,0,1,27,2.47c-.76-.18-1.26-.66-1.13-1.4A1.28,1.28,0,0,1,27.36,0C31.29.41,34,2.38,34,6.27c0,.75.21,1,1,1a34.49,34.49,0,0,1,7,.4,8.66,8.66,0,0,1,1.59.42C45,8.6,45.22,9,44.81,10.37Z"/>
				<path class="cls-3" d="M33.5,15.44h-.27C19.83,15.43,9,26.56,9,40.29S19.83,65.14,33.23,65.14s24.13-11,24.24-24.64h-24Z"/>
			</g>
		</g>
	</svg>