<svg xmlns="http://www.w3.org/2000/svg" viewBox="0 0 66 73.5"><defs><style>.cls-1{fill:none;stroke-width:6px;}.cls-1,.cls-2{stroke:#000;stroke-miterlimit:10;}.cls-2{fill:#7bce5f;}</style></defs><g id="Capa_2" data-name="Capa 2"><g id="Capa_1-2" data-name="Capa 1"><circle class="cls-1" cx="33" cy="40.5" r="30"/><path class="cls-2" d="M44.81,10.87A32.61,32.61,0,0,0,38.87,9c0,.1,0,.17,0,.21.3.39.92.71.57,1.29a1.76,1.76,0,0,1-1.72.72,5.26,5.26,0,0,1-3.14-1.36c-.73-.57-1.16-.58-1.79.25-1.43,1.9-3.23,3.38-6.07,3-2.57-.38-3-1.25-1.64-3.34a20.33,20.33,0,0,0-3.12,1c-.54-1.25-.27-1.84,1.13-2.34a19.64,19.64,0,0,1,5.45-.8c.88-.06,1.77,0,2.66,0,1.59,0,1.6,0,1.22-1.37a4.12,4.12,0,0,0-4.11-3.1A9.55,9.55,0,0,1,27,3c-.76-.18-1.26-.66-1.13-1.4A1.28,1.28,0,0,1,27.36.51C31.29.91,34,2.88,34,6.77c0,.75.21,1,1,1a34.49,34.49,0,0,1,7,.4,8.66,8.66,0,0,1,1.59.42C45,9.1,45.22,9.48,44.81,10.87Z"/><path d="M33,19.42c0,.57,0,1.15,0,1.72,0,.23.06.45.32.45s.36-.19.36-.44c0-1.19,0-2.38,0-3.56,0-.24-.09-.45-.34-.46s-.33.22-.34.44C33,18.19,33,18.81,33,19.42Z"/><path d="M33,61.43c0,.57,0,1.14,0,1.72,0,.23.06.45.33.45s.35-.2.35-.44c0-1.19,0-2.38,0-3.57,0-.23-.09-.44-.34-.46s-.33.23-.33.45C33,60.2,33.05,60.81,33,61.43Z"/><path d="M54.31,40H52.6c-.24,0-.46.06-.46.32s.2.36.44.36l3.57,0c.24,0,.45-.09.46-.34s-.23-.33-.45-.34Z"/><path d="M12.31,40H10.59c-.23,0-.45.06-.45.33s.19.35.44.35l3.56,0c.24,0,.45-.09.46-.34s-.22-.33-.44-.33C13.54,40,12.92,40,12.31,40Z"/><path d="M18.32,25.79,19.53,27c.17.16.37.27.55.09s.11-.39-.06-.57L17.51,24c-.16-.17-.37-.26-.56-.09s-.07.4.08.56C17.45,24.92,17.89,25.36,18.32,25.79Z"/><path d="M48,55.5l1.21,1.22c.16.16.36.28.55.09s.11-.39-.06-.57l-2.51-2.53c-.17-.17-.38-.25-.57-.08s-.07.39.08.55Z"/><path d="M48.44,25.78,47.23,27c-.17.17-.36.28-.55.09s-.11-.39.06-.56c.83-.85,1.67-1.69,2.51-2.54.16-.16.38-.25.56-.08s.08.39-.08.55C49.31,24.91,48.87,25.34,48.44,25.78Z"/><path d="M18.73,55.48c-.4.41-.8.82-1.21,1.22-.16.17-.36.28-.55.09s-.11-.39.06-.56l2.51-2.53c.17-.17.38-.26.57-.09s.07.39-.08.55C19.6,54.61,19.16,55,18.73,55.48Z"/><circle cx="33" cy="40.5" r="1"/></g></g></svg>