<?xml version="1.0" encoding="UTF-8"?>
<svg viewBox="0 0 60 68" xmlns="http://www.w3.org/2000/svg">
<defs>
<style>.cls-1{fill:#fff;}.cls-2{fill:#7bce5f;}.cls-3{stroke:#000;stroke-miterlimit:10;}.cls-4{fill:none;}</style>
</defs>
<g data-name="Capa 2">
<g data-name="Capa 1">
<path class="cls-1" d="m30.06 60.55v-3.49c0-0.29 0-0.66 0.41-0.66s0.4 0.37 0.4 0.66v3.5z"/>
<circle cx="30" cy="38" r="30"/>
<circle class="cls-1" cx="30" cy="38" r="25"/>
<path class="cls-2" d="M41.81,10.37a32.61,32.61,0,0,0-5.94-1.89c0,.1,0,.17,0,.21.3.39.92.71.57,1.29a1.76,1.76,0,0,1-1.72.72,5.26,5.26,0,0,1-3.14-1.36c-.73-.57-1.16-.58-1.79.25-1.43,1.9-3.23,3.38-6.07,3-2.57-.38-3-1.25-1.64-3.34a20.33,20.33,0,0,0-3.12,1c-.54-1.25-.27-1.84,1.13-2.34a19.64,19.64,0,0,1,5.45-.8c.88-.06,1.77,0,2.66,0,1.59,0,1.6,0,1.22-1.37a4.12,4.12,0,0,0-4.11-3.1A9.55,9.55,0,0,1,24,2.47c-.76-.18-1.26-.66-1.13-1.4A1.28,1.28,0,0,1,24.36,0C28.29.41,31,2.38,31,6.27c0,.75.21,1,1,1a34.49,34.49,0,0,1,7,.4,8.66,8.66,0,0,1,1.59.42C42,8.6,42.22,9,41.81,10.37Z"/>
<path class="cls-3" d="m30 16.92v1.72c0 0.23 0.06 0.45 0.32 0.45s0.36-0.19 0.36-0.44v-3.56c0-0.24-0.09-0.45-0.34-0.46s-0.33 0.22-0.34 0.44v1.85z"/>
<path class="cls-3" d="m30 58.93v1.72c0 0.23 0.06 0.45 0.33 0.45s0.35-0.2 0.35-0.44v-3.57c0-0.23-0.09-0.44-0.34-0.46s-0.33 0.23-0.33 0.45c-0.01 0.62 0.04 1.23-0.01 1.85z"/>
<path d="M51.32,37.52c-.57,0-1.14,0-1.72,0-.23,0-.45.06-.45.32s.2.35.44.36h3.57c.23,0,.44-.08.46-.34s-.23-.32-.45-.33Z"/>
<path d="M9.31,37.53H7.6c-.24,0-.46.06-.46.32s.2.36.44.36l3.57,0c.23,0,.45-.09.46-.34s-.23-.33-.45-.34Z"/>
<path class="cls-3" d="M51.31,37.52H49.6c-.24,0-.46.06-.46.32s.2.36.44.36l3.57,0c.24,0,.45-.09.46-.34s-.23-.33-.45-.34Z"/>
<path class="cls-3" d="M9.31,37.52H7.59c-.23,0-.45.06-.45.33s.19.35.44.35l3.56,0c.24,0,.45-.09.46-.34s-.22-.33-.44-.33C10.54,37.52,9.92,37.53,9.31,37.52Z"/>
<path class="cls-3" d="M15.32,23.29l1.21,1.23c.17.16.37.27.55.09s.11-.39-.06-.57l-2.51-2.53c-.16-.17-.37-.26-.56-.09s-.07.4.08.56C14.45,22.42,14.89,22.86,15.32,23.29Z"/>
<path class="cls-3" d="M45,53l1.21,1.22c.16.16.36.28.55.09s.11-.39-.06-.57l-2.51-2.53c-.17-.17-.38-.25-.57-.08s-.07.39.08.55Z"/>
<path class="cls-3" d="M45.44,23.28,44.23,24.5c-.17.17-.36.28-.55.09s-.11-.39.06-.56c.83-.85,1.67-1.69,2.51-2.54.16-.16.38-.25.56-.08s.08.39-.08.55C46.31,22.41,45.87,22.84,45.44,23.28Z"/>
<path class="cls-3" d="M15.73,53c-.4.41-.8.82-1.21,1.22-.16.17-.36.28-.55.09s-.11-.39.06-.56l2.51-2.53c.17-.17.38-.26.57-.09s.07.39-.08.55C16.6,52.11,16.16,52.54,15.73,53Z"/>
<circle cx="30" cy="38" r="1"/>
<line class="cls-4" x1="30" x2="30" y1="38" y2="43"/>
</g>
</g>
</svg>
